<?xml version="1.0" encoding="UTF-8"?>
<svg id="Layer_1" data-name="Layer 1" xmlns="http://www.w3.org/2000/svg" version="1.1" viewBox="0 0 595.3 841.9">
  <defs>
    <style>
      .cls-1 {
        fill: #c52d27;
      }

      .cls-1, .cls-2, .cls-3 {
        stroke-width: 0px;
      }

      .cls-4 {
        fill: none;
        stroke: #fff;
        stroke-miterlimit: 10;
        stroke-width: 5px;
      }

      .cls-2 {
        fill: #fff;
      }

      .cls-3 {
        fill: #fdfeff;
      }
    </style>
  </defs>
  <path class="cls-1" d="M419,293.9c-35.7-83.3-113.7-84.4-124.8-84.1-11.1-.3-89.1.8-124.8,84.1-38.5,89.8,49.1,225.5,49.1,225.5,0,0,49.1,77.4,74.1,95.6.5.3.9.5,1.4.5,0,0,.1,0,.2,0s.1,0,.2,0c.4,0,.9-.2,1.4-.5,25-18.2,74.1-95.6,74.1-95.6,0,0,87.6-135.7,49.1-225.5Z"/>
  <g>
    <path class="cls-2" d="M235.3,360.6c2.5,1.3,4.9,2,7.2,2,4.8,0,9.1-2.7,12.1-7.9,3.3-5.6,4.5-13.3,3.2-20.7-1.4-8.4-5.9-15.5-12.5-20-1.1-.8-2.7-.5-3.4.7-.8,1.2-.4,2.7.7,3.5,12.2,8.2,12.8,25.3,7.7,33.9-1.8,3.1-5.9,7.7-12.8,4-7.2-3.9-11.2-9.3-12-16.1-1.1-9.5,4.5-20.3,10.4-25.6,8.2-7.4,11.5-8.7,25.1-4.4,4.4,1.4,13.9,2.5,29.3-5.3.2,0,.3,0,.4,0s.2.1.3.3c2.3,6.2,4.9,17.7-3.3,25.8-2.5,2.4-4.9,4.5-7.3,6.6-2.1,1.8-4.1,3.5-6,5.4l-.7.6v.9c-.1.6-1.4,14.6,9.4,24.2.5.4,1,.6,1.6.6s1.4-.3,1.9-.9c.9-1,.8-2.6-.2-3.6-7.4-6.6-7.9-16.1-7.9-19,1.6-1.5,3.3-3,5.1-4.5,2.5-2.1,5-4.3,7.6-6.8,10.6-10.4,6.7-25.2,4.5-31.2-.5-1.5-1.7-2.6-3.1-3.2-1.5-.6-3.1-.5-4.5.2-4.8,2.4-16.8,7.8-25.6,5-6.6-2.1-11.3-3.2-15.8-2.5-4.5.7-8.6,3-14.1,8-7,6.3-13.4,18.7-12,30,1,8.4,6.1,15.3,14.6,19.9Z"/>
    <path class="cls-2" d="M385.7,370.3c-2.8-8.8-10.1-12.8-16.1-12.8s-2.5,1.1-2.5,2.5,1.1,2.5,2.5,2.5c4.2,0,9.4,2.9,11.4,9.3,1.6,5.1,1.4,9.5-.7,13.4-3.1,6-10.2,10.5-19.1,14.3-1.1-5.6-3.4-10.7-5.7-15.3,4.5-1.8,7.4-5.8,8.2-11.7.9-6.2-.8-14.4-4.4-21.9-3.7-7.8-9-13.7-14.5-16.2-.8-.5-4.5-2.5-9.3-3.4-7.3-1.3-13.7.7-18.5,5.9-6,6.5-10.5,5.8-14.4,5.3-2.2-.3-4.4-.6-6.4.6-3.3,2.1-3.7,11-1,17.9,2,5,5.6,8.9,10.3,11.2,5.7,2.8,13,3.2,21.8,1.3,1.3-.3,2.2-1.6,1.9-3s-1.6-2.2-2.9-2c-12,2.6-20.6.3-25-6.7-3.7-5.8-3.1-13-2.2-14.6.5-.1,1.8,0,2.8.2,4.1.6,10.9,1.6,18.8-6.8,3.6-3.9,8.3-5.4,13.9-4.4,4.5.8,7.9,2.8,7.9,2.8h.1c0,0,.1.1.1.1,9.2,4.2,17.7,21.5,16.1,32.9-.6,4.7-2.9,7.5-6.8,8.2-.4,0-.7,0-1.1.2-3.8.4-6.6-.5-8.7-2.7-6.3-6.7-4.6-24-3.5-30.1.3-1.4-.6-2.7-2-3s-2.6.6-2.9,2c-.2,1-4.6,24.6,4.8,34.6,2.7,2.9,6.3,4.4,10.6,4.4s.8,0,1.2,0c2.5,4.8,5,10,6,15.7,0,.1,0,.3,0,.4-7.1,2.7-15.1,5-23,7.4-4.3,1.3-8.5,2.5-12.5,3.8-1.3-2.9-2.7-5.7-4.3-8.4-8.7-15.4-19.3-23.7-24.8-23.7s-14.4,5.7-20.6,17c-4.7,8.5-9.1,20.3-13.1,35.1-5.6,20.7-8.8,41.7-9.8,48.4h-21.6c1.3-8.7,8.9-13,9.3-13.2.6-.3,1-.9,1.2-1.5,0-.2,1.4-4.9,1.6-13.1.2-13.6-3-26.4-5.7-34.7-7.1-21.6-1.4-43.1,1.3-51.4.4-1.3-.3-2.8-1.6-3.2-1.3-.5-2.7.3-3.1,1.6-2.9,8.8-8.9,31.6-1.3,54.6,4.7,14.3,5.6,25.7,5.5,32.8,0,5.6-.8,9.5-1.1,11.1-2.9,1.9-11.1,8.3-11.1,19.6s1.1,2.5,2.5,2.5h26.4c1.2,0,2.3-.9,2.5-2.2,0-.2,3.3-25.2,9.9-49.9,3.9-14.4,8.1-25.8,12.6-34,5.3-9.6,10.8-14.4,16.3-14.4s11.4,5.2,20.5,21.1c1.4,2.4,2.6,4.9,3.8,7.5-4.8,1.6-9.2,3.4-13,5.3-6.2,3.1-11.3,8.6-15.2,16.1-3.1,5.9-5.4,13-7,21.3-2.6,14-2.2,26.2-2.2,26.7,0,1.4,1.1,2.4,2.5,2.4h50.3c1.4,0,2.5-1.1,2.5-2.5,0-18.5-2.1-43.7-11.1-66.2,3.8-1.2,7.8-2.4,11.9-3.6,7.5-2.2,15.1-4.5,22.1-7,.1,5.1-1,10.2-3.2,15.6-7.7,18.2-9.4,40.3-8.4,45.4.2,1.1,1.1,1.9,2.1,2,.5,0,11,1.5,12.5,11.8h-18.4c-1.4,0-2.5,1.1-2.5,2.5s1.1,2.5,2.5,2.5h21.1c1.4,0,2.5-1.1,2.5-2.5,0-9-4.7-13.8-8.6-16.2-2.4-1.5-4.8-2.3-6.5-2.7-.2-6.4,1.7-25.3,8.3-40.8,2.8-6.7,4-13.1,3.6-19.5,10.4-4.3,18.9-9.6,22.8-17.1,2.7-5.1,3-11,1-17.3ZM329.2,480.9h-45.4c0-9.8,1.4-46.6,21.6-57,3.7-1.9,8.1-3.6,12.8-5.2,8.5,20.9,10.7,44.3,10.9,62.2Z"/>
  </g>
  <g id="drone_12" data-name="drone 12">
    <path class="cls-3" d="M319.9,267.5h-26.6c-1.1,0-2-.9-2-2s.9-2,2-2h26.6c1.1,0,2,.9,2,2s-.9,2-2,2Z"/>
    <path class="cls-3" d="M306.6,276.8c-1.1,0-2-.9-2-2v-16.1c0-1.1.9-2,2-2s2,.9,2,2v16.1c0,1.1-.9,2-2,2Z"/>
    <path class="cls-3" d="M371.3,267.5h-26.6c-1.1,0-2-.9-2-2s.9-2,2-2h26.6c1.1,0,2,.9,2,2s-.9,2-2,2Z"/>
    <path class="cls-3" d="M358,276.8c-1.1,0-2-.9-2-2v-16.1c0-1.1.9-2,2-2s2,.9,2,2v16.1c0,1.1-.9,2-2,2Z"/>
    <path class="cls-3" d="M342,292.1h-19.2c-1.1,0-2-.9-2-2v-4.5h-18.8c-1.1,0-2-.9-2-2v-8.9c0-1.1.9-2,2-2h21.5c2.2-2.7,5.5-4.3,9-4.3s6.7,1.6,9,4.3h21.5c1.1,0,2,.9,2,2v8.9c0,1.1-.9,2-2,2h-18.8v4.5c0,1.1-.9,2-2,2ZM324.7,288.1h15.2v-4.5c0-1.1.9-2,2-2h18.8v-4.9h-20.5c-.7,0-1.3-.3-1.7-.9-1.4-2.1-3.8-3.4-6.3-3.4s-4.9,1.3-6.3,3.4c-.4.6-1,.9-1.7.9h-20.5v4.9h18.8c1.1,0,2,.9,2,2v4.5Z"/>
    <path class="cls-3" d="M332.3,285c-1.1,0-2-.9-2-2v-4.6c0-1.1.9-2,2-2s2,.9,2,2v4.6c0,1.1-.9,2-2,2Z"/>
    <path class="cls-3" d="M332.3,313.3c-5.1,0-9.9-2-13.5-5.7-.8-.8-.8-2.1,0-2.8.8-.8,2.1-.8,2.8,0,2.9,2.9,6.6,4.5,10.7,4.5s7.8-1.6,10.7-4.5c.8-.8,2-.8,2.8,0,.8.8.8,2,0,2.8-3.6,3.7-8.4,5.7-13.5,5.7Z"/>
    <path class="cls-3" d="M332.3,304c-2.7,0-5.2-1.1-7.1-3-.8-.8-.8-2.1,0-2.8.8-.8,2.1-.8,2.8,0,1.1,1.1,2.6,1.8,4.2,1.8s3.1-.6,4.2-1.8c.8-.8,2-.8,2.8,0,.8.8.8,2,0,2.8-1.9,1.9-4.4,3-7.1,3Z"/>
    <path class="cls-3" d="M307.3,299.5c-1.1,0-2-.9-2-2v-6.8c0-.5.2-1,.6-1.4l7-7.1c.8-.8,2-.8,2.8,0s.8,2,0,2.8l-6.4,6.5v6c0,1.1-.9,2-2,2Z"/>
    <path class="cls-3" d="M357.3,299.5c-1.1,0-2-.9-2-2v-6l-6.4-6.5c-.8-.8-.8-2.1,0-2.8.8-.8,2.1-.8,2.8,0l7,7.1c.4.4.6.9.6,1.4v6.8c0,1.1-.9,2-2,2Z"/>
  </g>
  <path class="cls-4" d="M410,298.4c-33.1-78.6-105.5-79.7-115.8-79.4-10.3-.3-82.6.8-115.8,79.4-35.7,84.8,45.6,212.8,45.6,212.8,0,0,45.6,73,68.8,90.2.4.3.9.5,1.2.5,0,0,.1,0,.2,0s.1,0,.2,0c.4,0,.8-.2,1.2-.5,23.2-17.1,68.8-90.2,68.8-90.2,0,0,81.3-128.1,45.6-212.8Z"/>
</svg>